<?xml version="1.0" encoding="UTF-8"?>
<svg version="1.1" xmlns="http://www.w3.org/2000/svg" width="500" height="500">
<path d="M0 0 C2.98844681 2.46107385 3.90262197 4.01853021 5.125 7.75 C5.59551227 13.46231297 5.88792576 19.22630788 3.9375 24.6875 C2.75545302 27.76619525 2.75545302 27.76619525 4.5 30.4375 C7.23364486 36.0099299 7.08986402 42.20067879 5.46875 48.1640625 C3.19172702 53.40514126 0.27879705 55.44919775 -4.875 57.75 C-12.78327105 60.24821952 -22.79407503 59.12223254 -30.875 57.75 C-32.657673 55.967327 -32.00351952 53.57533034 -32.01382446 51.20169067 C-32.01184052 50.41712494 -32.00985657 49.6325592 -32.0078125 48.82421875 C-32.00913177 48.01290497 -32.01045105 47.20159119 -32.0118103 46.36569214 C-32.01373149 43.72292291 -32.00739058 41.08025847 -32 38.4375 C-31.99911377 37.54884247 -31.99822754 36.66018494 -31.99731445 35.74459839 C-31.98233425 23.05650628 -31.79689537 10.40959892 -30.875 -2.25 C-20.35419072 -3.88977701 -9.9257341 -4.31553657 0 0 Z M-18.875 7.75 C-19.72721996 11.15887983 -19.98283755 13.55434631 -19.9375 17 C-19.92847656 17.89203125 -19.91945313 18.7840625 -19.91015625 19.703125 C-19.89855469 20.37859375 -19.88695313 21.0540625 -19.875 21.75 C-15.70104157 23.04917911 -12.980618 22.22182532 -8.875 20.75 C-7.69193272 18.38386544 -7.74145392 16.88219264 -7.75 14.25 C-7.74742187 13.4559375 -7.74484375 12.661875 -7.7421875 11.84375 C-7.74222004 9.69081466 -7.74222004 9.69081466 -8.875 7.75 C-12.175 7.75 -15.475 7.75 -18.875 7.75 Z M-19.875 32.75 C-19.875 37.7 -19.875 42.65 -19.875 47.75 C-18.10125 47.79125 -16.3275 47.8325 -14.5 47.875 C-13.50226563 47.89820313 -12.50453125 47.92140625 -11.4765625 47.9453125 C-8.71237827 48.02216848 -8.71237827 48.02216848 -6.875 45.75 C-6.63160449 42.85116917 -6.63160449 42.85116917 -6.75 39.625 C-6.76804688 38.52929688 -6.78609375 37.43359375 -6.8046875 36.3046875 C-6.82789063 35.46164063 -6.85109375 34.61859375 -6.875 33.75 C-9.88990557 32.74503148 -11.91681692 32.64664697 -15.0625 32.6875 C-17.4446875 32.7184375 -17.4446875 32.7184375 -19.875 32.75 Z " fill="#F0F7FD" transform="translate(135.875,199.25)"/>
<path d="M0 0 C4.99549574 5.23917846 4.9855603 10.40907282 4.890625 17.37890625 C4.34061167 22.92487404 2.52744769 27.72255231 -1.4375 31.6875 C-1.10136233 37.62298351 1.65631738 42.60289374 4.2109375 47.85351562 C6.05845551 51.84006576 7.11193335 54.32014116 5.5625 58.6875 C-1.64005968 59.29788641 -1.64005968 59.29788641 -4.96875 56.75 C-8.08913319 52.8791449 -9.58915427 49.02023518 -11.25 44.375 C-11.71696289 43.12106445 -11.71696289 43.12106445 -12.19335938 41.84179688 C-12.95364669 39.79486948 -13.69728034 37.74176956 -14.4375 35.6875 C-15.7575 35.6875 -17.0775 35.6875 -18.4375 35.6875 C-18.45731934 36.31317871 -18.47713867 36.93885742 -18.49755859 37.58349609 C-18.59264226 40.41026519 -18.70238746 43.23627815 -18.8125 46.0625 C-18.85890625 47.53976563 -18.85890625 47.53976563 -18.90625 49.046875 C-18.96425781 50.45839844 -18.96425781 50.45839844 -19.0234375 51.8984375 C-19.0548584 52.76774902 -19.0862793 53.63706055 -19.11865234 54.53271484 C-19.4375 56.6875 -19.4375 56.6875 -21.4375 58.6875 C-27.55911783 58.46489572 -27.55911783 58.46489572 -30.15332031 56.16894531 C-32.03167239 52.53936916 -31.7160817 49.08538377 -31.546875 45.109375 C-31.51077118 43.84302216 -31.51077118 43.84302216 -31.47393799 42.55108643 C-31.3929578 39.84587496 -31.29025607 37.1419625 -31.1875 34.4375 C-31.13274956 32.66410412 -31.07935096 30.89066595 -31.02734375 29.1171875 C-30.07713007 -1.67286993 -30.07713007 -1.67286993 -28.4375 -3.3125 C-19.18165968 -4.77394847 -7.90681771 -6.11768378 0 0 Z M-18.4375 7.6875 C-18.51063567 10.21799402 -18.52997527 12.72054837 -18.5 15.25 C-18.49548828 15.96091797 -18.49097656 16.67183594 -18.48632812 17.40429688 C-18.47450864 19.16540013 -18.45657263 20.92646036 -18.4375 22.6875 C-13.66389429 23.07884882 -13.66389429 23.07884882 -9.5 21.25 C-7.93146686 17.46706713 -7.86441197 13.72888701 -8.4375 9.6875 C-9.0975 8.6975 -9.7575 7.7075 -10.4375 6.6875 C-14.74483607 6.05948361 -14.74483607 6.05948361 -18.4375 7.6875 Z " fill="#167D32" transform="translate(238.4375,202.3125)"/>
<path d="M0 0 C3.10367363 2.9155722 5.67469425 5.87078975 8.1875 9.3125 C27.23315783 33.99828826 63.86890968 41.61551347 93.01171875 45.57421875 C97.74441562 46.13423763 102.49109447 46.34998665 107.25 46.5625 C108.54744141 46.62727539 108.54744141 46.62727539 109.87109375 46.69335938 C147.40085896 48.43957445 186.11693259 42.73179269 220 26 C220.67820801 25.66709961 221.35641602 25.33419922 222.05517578 24.99121094 C230.62828477 20.73275476 238.44642301 15.90466725 246 10 C246.99 10.495 246.99 10.495 248 11 C232.92731992 27.50817342 211.06285871 38.28566162 190 45 C189.32501465 45.21849609 188.6500293 45.43699219 187.95458984 45.66210938 C141.35484394 60.44742071 82.80026459 60.63302757 38.44360352 38.3671875 C31.08719077 34.53740964 24.22701183 30.52630774 18 25 C17.32066406 24.46117187 16.64132813 23.92234375 15.94140625 23.3671875 C8.93588135 17.67271546 3.53530079 10.3183548 0 2 C0 1.34 0 0.68 0 0 Z " fill="#EDF8FD" transform="translate(115,265)"/>
<path d="M0 0 C0.87205078 -0.00322266 1.74410156 -0.00644531 2.64257812 -0.00976562 C7.46189766 0.03036497 11.41578376 0.44886983 15.9375 2.3125 C15.625 4.6875 15.625 4.6875 14.9375 7.3125 C13.9475 7.9725 12.9575 8.6325 11.9375 9.3125 C12.4325 10.7975 12.4325 10.7975 12.9375 12.3125 C13.36191849 18.46656814 12.70682458 23.7298933 9.9375 29.3125 C7.04974682 32.27429814 4.89799743 33.43799526 0.9375 34.3125 C1.87722656 34.69341797 1.87722656 34.69341797 2.8359375 35.08203125 C3.65320313 35.42621094 4.47046875 35.77039063 5.3125 36.125 C6.12460937 36.46144531 6.93671875 36.79789062 7.7734375 37.14453125 C9.9375 38.3125 9.9375 38.3125 11.9375 41.3125 C12.50991909 46.11487316 12.49486766 50.73875602 10.875 55.3125 C6.27189021 60.0640972 1.7433903 60.508815 -4.625 60.625 C-9.19055746 60.60855742 -12.78809296 59.92584762 -17.0625 58.3125 C-17.6875 54.9375 -17.6875 54.9375 -18.0625 51.3125 C-16.0625 49.3125 -16.0625 49.3125 -12.3671875 49.1171875 C-10.89049892 49.130491 -9.41387642 49.15435165 -7.9375 49.1875 C-7.18339844 49.19652344 -6.42929687 49.20554687 -5.65234375 49.21484375 C-3.78892746 49.2384313 -1.92567407 49.27430281 -0.0625 49.3125 C0.2675 48.3225 0.5975 47.3325 0.9375 46.3125 C-0.19429688 46.26351562 -1.32609375 46.21453125 -2.4921875 46.1640625 C-3.97398339 46.08903486 -5.455753 46.01348703 -6.9375 45.9375 C-7.68386719 45.9065625 -8.43023437 45.875625 -9.19921875 45.84375 C-14.8359375 45.5390625 -14.8359375 45.5390625 -17.0625 43.3125 C-16.74740074 39.9724478 -16.24256405 36.89424539 -15.25 33.6875 C-14.78939665 31.09962742 -14.78939665 31.09962742 -16.9375 28.6875 C-17.63875 27.90375 -18.34 27.12 -19.0625 26.3125 C-20.20580513 22.88258462 -20.26631651 20.1138584 -20.3125 16.5 C-20.33828125 15.29730469 -20.3640625 14.09460938 -20.390625 12.85546875 C-20.01905701 8.84341918 -19.37946645 6.61370626 -17.0625 3.3125 C-11.49927506 -0.06238103 -6.3886882 -0.11857254 0 0 Z M-8.0625 11.3125 C-8.34412436 14.17632721 -8.34412436 14.17632721 -8.25 17.375 C-8.24355469 18.45910156 -8.23710937 19.54320312 -8.23046875 20.66015625 C-8.36081107 23.23452315 -8.36081107 23.23452315 -7.0625 24.3125 C-4.60440002 24.5625773 -4.60440002 24.5625773 -2.0625 24.3125 C0.22798031 22.45294315 0.22798031 22.45294315 0.16796875 19.52734375 C0.15378906 18.44582031 0.13960938 17.36429688 0.125 16.25 C0.11855469 15.16589844 0.11210937 14.08179688 0.10546875 12.96484375 C0.23581107 10.39047685 0.23581107 10.39047685 -1.0625 9.3125 C-5.023668 8.92159667 -5.023668 8.92159667 -8.0625 11.3125 Z " fill="#167C32" transform="translate(306.0625,219.6875)"/>
<path d="M0 0 C5.56449004 5.29911942 9.70771189 10.74481788 13.24609375 17.55859375 C13.64828125 18.25210938 14.05046875 18.945625 14.46484375 19.66015625 C15.24609375 21.55859375 15.24609375 21.55859375 14.24609375 24.55859375 C13.67761719 23.70136719 13.10914063 22.84414062 12.5234375 21.9609375 C-7.63240074 -8.07073429 -40.49005224 -17.40830859 -74.359375 -24.16015625 C-119.03981836 -32.18729006 -172.75457835 -25.73791586 -211.75390625 -1.44140625 C-213.16349609 -0.27158203 -213.16349609 -0.27158203 -214.6015625 0.921875 C-215.31183594 1.46199219 -216.02210938 2.00210938 -216.75390625 2.55859375 C-217.74390625 2.22859375 -218.73390625 1.89859375 -219.75390625 1.55859375 C-196.4653652 -18.60302896 -169.83344211 -27.9735955 -139.75390625 -32.44140625 C-138.97112305 -32.56 -138.18833984 -32.67859375 -137.38183594 -32.80078125 C-90.97703006 -39.53599282 -36.15552105 -32.05276689 0 0 Z " fill="#EEF8FD" transform="translate(349.75390625,183.44140625)"/>
<path d="M0 0 C6.125 -0.4375 6.125 -0.4375 9 1 C10.25433458 4.76300374 10.10695422 8.27210909 10.0625 12.1875 C10.05798828 12.93708984 10.05347656 13.68667969 10.04882812 14.45898438 C10.03706354 16.30602383 10.01912865 18.15302213 10 20 C11.84658203 19.94779297 11.84658203 19.94779297 13.73046875 19.89453125 C18.63851242 19.89993778 21.99365755 21.16602043 26 24 C31.45396071 30.68550022 30.12483816 39.82536493 29.50390625 47.90625 C28.92095751 53.56405583 27.50588599 57.82755852 23.0625 61.6796875 C18.35953174 63.70724269 13.81054367 63.35407288 8.75 63.25 C7.73164063 63.24484375 6.71328125 63.2396875 5.6640625 63.234375 C-1.84572945 63.15427055 -1.84572945 63.15427055 -3 62 C-3.10767345 59.07381564 -3.14025883 56.17680129 -3.125 53.25 C-3.12161621 52.31438232 -3.11823242 51.37876465 -3.11474609 50.41479492 C-3.05260513 41.22154561 -2.88835108 32.02903476 -2.68060303 22.8380127 C-2.64353936 21.15456547 -2.60956218 19.47104745 -2.57867432 17.78747559 C-2.53340627 15.39574513 -2.47540602 13.00464669 -2.4140625 10.61328125 C-2.40250122 9.88915543 -2.39093994 9.1650296 -2.37902832 8.41896057 C-2.27048071 4.75561636 -2.08629982 3.12944973 0 0 Z M10 29 C10 37.25 10 45.5 10 54 C11.65 54 13.3 54 15 54 C17.79332667 51.20667333 17.10755951 43.62680315 17.1875 39.8125 C17.12021885 34.63627707 17.12021885 34.63627707 15 30 C13.35 29.67 11.7 29.34 10 29 Z " fill="#157C33" transform="translate(327,201)"/>
<path d="M0 0 C0.79664063 0.10828125 1.59328125 0.2165625 2.4140625 0.328125 C4.375 0.75 4.375 0.75 5.375 1.75 C5.4633967 4.1256852 5.49030305 6.47208674 5.47265625 8.84765625 C5.4712413 9.55651474 5.46982635 10.26537323 5.46836853 10.99571228 C5.46275443 13.26801712 5.45019963 15.54022475 5.4375 17.8125 C5.43248681 19.34960796 5.42792359 20.88671745 5.42382812 22.42382812 C5.41278042 26.19925642 5.39550641 29.97461171 5.375 33.75 C7.355 32.76 9.335 31.77 11.375 30.75 C11.40005615 29.94780029 11.4251123 29.14560059 11.45092773 28.3190918 C11.56682043 24.69172926 11.68957751 21.06463083 11.8125 17.4375 C11.85181641 16.17486328 11.89113281 14.91222656 11.93164062 13.61132812 C11.97353516 12.40283203 12.01542969 11.19433594 12.05859375 9.94921875 C12.09525146 8.83377686 12.13190918 7.71833496 12.16967773 6.5690918 C12.375 3.75 12.375 3.75 13.375 0.75 C14.99990954 0.72301811 16.62494633 0.70361243 18.25 0.6875 C19.60738281 0.67009766 19.60738281 0.67009766 20.9921875 0.65234375 C23.375 0.75 23.375 0.75 25.375 1.75 C25.4000466 5.82103519 25.41802089 9.89203946 25.42993164 13.96313477 C25.43490624 15.34302554 25.44168832 16.72291121 25.45043945 18.1027832 C25.50155771 26.38093324 25.33557715 34.52282454 24.375 42.75 C20.25451136 43.74030231 18.22757619 43.62125129 14.375 41.75 C14.375 41.09 14.375 40.43 14.375 39.75 C13.22 40.265625 12.065 40.78125 10.875 41.3125 C6.17709149 43.05031041 3.23501363 43.02475767 -1.625 41.75 C-4.8036241 39.1800486 -6.33228109 37.62815673 -7.625 33.75 C-7.85257763 29.31706353 -7.85324778 24.88188475 -7.86523438 20.44384766 C-7.87496548 18.25775464 -7.90601319 16.07259224 -7.9375 13.88671875 C-7.94402807 12.49740141 -7.94927931 11.10807736 -7.953125 9.71875 C-7.9624707 8.45482422 -7.97181641 7.19089844 -7.98144531 5.88867188 C-7.625 2.75 -7.625 2.75 -6.24365234 0.82128906 C-3.99107901 -0.66955434 -2.63741148 -0.39518218 0 0 Z " fill="#167D33" transform="translate(256.625,219.25)"/>
<path d="M0 0 C3.16619929 0.64028891 4.16780393 1.85162778 6.10546875 4.42578125 C7.12117067 7.12291812 7.74895095 9.8619364 8.35546875 12.67578125 C8.52820313 13.42085937 8.7009375 14.1659375 8.87890625 14.93359375 C9.30070403 16.76138412 9.70486434 18.59322917 10.10546875 20.42578125 C12.73400017 16.48298412 13.51189413 12.32800711 14.60546875 7.78710938 C15.90101266 2.63023734 15.90101266 2.63023734 18.10546875 0.42578125 C20.83416282 0.45865708 23.40213055 0.98975896 26.10546875 1.42578125 C27.1662154 5.37258985 26.98416708 7.84835815 25.78198242 11.73510742 C25.46803024 12.76935349 25.15407806 13.80359955 24.83061218 14.8691864 C24.48174454 15.97454239 24.13287689 17.07989838 23.7734375 18.21875 C23.42162918 19.36112625 23.06982086 20.5035025 22.70735168 21.68049622 C21.96202087 24.09201091 21.21104005 26.50178555 20.45483398 28.90991211 C19.29533272 32.60574624 18.15509686 36.30711386 17.01757812 40.00976562 C16.29149468 42.35061125 15.56431837 44.69111823 14.8359375 47.03125 C14.49314255 48.14267868 14.1503476 49.25410736 13.79716492 50.3992157 C13.47375626 51.42400528 13.1503476 52.44879486 12.81713867 53.50463867 C12.39291878 54.86101692 12.39291878 54.86101692 11.96012878 56.24479675 C11.10546875 58.42578125 11.10546875 58.42578125 9.10546875 60.42578125 C5.60546875 60.73828125 5.60546875 60.73828125 2.10546875 60.42578125 C0.10546875 57.42578125 0.10546875 57.42578125 0.56640625 54.53515625 C0.86804688 53.4265625 1.1696875 52.31796875 1.48046875 51.17578125 C3.98507362 41.89785363 2.79779289 35.46247297 -0.20703125 26.55078125 C-0.51576172 25.60847656 -0.82449219 24.66617188 -1.14257812 23.6953125 C-2.3347253 20.06616552 -3.544883 16.44388031 -4.78564453 12.83105469 C-5.05747559 12.03473633 -5.32930664 11.23841797 -5.609375 10.41796875 C-5.85163818 9.71784668 -6.09390137 9.01772461 -6.34350586 8.29638672 C-7.03902294 5.93526495 -7.19970031 3.86713373 -6.89453125 1.42578125 C-5.04421135 -0.42453865 -2.46981043 0.13437993 0 0 Z " fill="#157C33" transform="translate(363.89453125,221.57421875)"/>
<path d="M0 0 C3.9453876 2.86040601 5.58235553 6.11582878 6.5 10.8125 C6.56688591 12.72811254 6.58531719 14.64585592 6.5625 16.5625 C6.55347656 17.54734375 6.54445312 18.5321875 6.53515625 19.546875 C6.52355469 20.29453125 6.51195312 21.0421875 6.5 21.8125 C2.68483536 23.11312431 -0.77561763 22.70619853 -4.75 22.375 C-6.01328125 22.27316406 -7.2765625 22.17132813 -8.578125 22.06640625 C-9.54234375 21.98261719 -10.5065625 21.89882812 -11.5 21.8125 C-11.17 24.7825 -10.84 27.7525 -10.5 30.8125 C-4.89 31.1425 0.72 31.4725 6.5 31.8125 C6.5 34.1225 6.5 36.4325 6.5 38.8125 C2.69754741 41.34746839 -0.40774357 41.14371179 -4.8125 41.125 C-5.55951172 41.14111328 -6.30652344 41.15722656 -7.07617188 41.17382812 C-11.95628966 41.17811269 -15.25671508 40.46294089 -19.5 37.8125 C-24.2039297 32.62195689 -23.71385571 27.18594153 -23.75 20.5625 C-23.770625 19.63308594 -23.79125 18.70367187 -23.8125 17.74609375 C-23.8494254 11.21952957 -23.20326817 6.19158522 -19 0.9375 C-13.90900072 -2.88074946 -5.65601783 -1.91900605 0 0 Z M-11.5 8.8125 C-11.7502157 11.89615871 -11.7502157 11.89615871 -11.5 14.8125 C-9.19 14.8125 -6.88 14.8125 -4.5 14.8125 C-4.83 12.1725 -5.16 9.5325 -5.5 6.8125 C-8.68490007 6.5351499 -8.68490007 6.5351499 -11.5 8.8125 Z " fill="#EFF7FD" transform="translate(170.5,218.1875)"/>
<path d="M0 0 C0.33 2.97 0.66 5.94 1 9 C1.928125 8.95875 2.85625 8.9175 3.8125 8.875 C7 9 7 9 10 11 C9.67 12.98 9.34 14.96 9 17 C6.69 17 4.38 17 2 17 C1.83027568 20.97904231 1.66478147 24.95825017 1.5 28.9375 C1.45230469 30.05447266 1.40460938 31.17144531 1.35546875 32.32226562 C1.09958559 38.55484826 0.94708155 44.76223786 1 51 C-5.44332724 51.36471664 -5.44332724 51.36471664 -7.8125 49.8125 C-10.60151426 45.5555835 -11.24500043 41.86754352 -11.1953125 36.82421875 C-11.18886719 35.66728516 -11.18242187 34.51035156 -11.17578125 33.31835938 C-11.15902344 32.12017578 -11.14226562 30.92199219 -11.125 29.6875 C-11.11597656 28.46998047 -11.10695312 27.25246094 -11.09765625 25.99804688 C-11.07413037 22.99849726 -11.04125653 19.99934956 -11 17 C-13.31 16.67 -15.62 16.34 -18 16 C-17.67 14.02 -17.34 12.04 -17 10 C-15.9275 9.835 -14.855 9.67 -13.75 9.5 C-11.18227411 8.79971112 -10.23693691 8.34640321 -8.71484375 6.12109375 C-8.04258153 4.69221702 -7.4102326 3.2437042 -6.82421875 1.77734375 C-5.15747842 -1.81681195 -3.72670943 -0.93167736 0 0 Z " fill="#EFF7FC" transform="translate(197,210)"/>
<path d="M0 0 C14.94887301 0.70148433 14.94887301 0.70148433 20.3125 6.5 C24.09405892 12.10230951 23.55779426 18.4798374 23 25 C21.61519549 29.8879486 20.275178 33.14988133 16 36 C15.67 34.68 15.34 33.36 15 32 C15.99 32.33 16.98 32.66 18 33 C18.33 30.69 18.66 28.38 19 26 C19.66 26 20.32 26 21 26 C21 20.72 21 15.44 21 10 C20.34 10 19.68 10 19 10 C18.9175 9.38125 18.835 8.7625 18.75 8.125 C18.20401717 5.87471717 18.20401717 5.87471717 16.25 4.90625 C13.84632338 3.93810247 11.8252279 3.60222599 9.25 3.375 C8.45078125 3.30023438 7.6515625 3.22546875 6.828125 3.1484375 C6.22484375 3.09945312 5.6215625 3.05046875 5 3 C5 2.34 5 1.68 5 1 C3.35 1 1.7 1 0 1 C0 0.67 0 0.34 0 0 Z " fill="#187143" transform="translate(220,198)"/>
<path d="M0 0 C6.125 -0.4375 6.125 -0.4375 9 1 C10.25433458 4.76300374 10.10695422 8.27210909 10.0625 12.1875 C10.05798828 12.93708984 10.05347656 13.68667969 10.04882812 14.45898438 C10.03706354 16.30602383 10.01912865 18.15302213 10 20 C11.2375 19.9690625 12.475 19.938125 13.75 19.90625 C18.25415242 19.90625 20.99155568 20.99577784 25 23 C22.92446352 23.5534764 21.15634036 24 19 24 C18.67 24.33 18.34 24.66 18 25 C16.33382885 25.04063832 14.66611905 25.042721 13 25 C13.66 24.67 14.32 24.34 15 24 C14.67 23.34 14.34 22.68 14 22 C13.175 21.835 12.35 21.67 11.5 21.5 C10.675 21.335 9.85 21.17 9 21 C7.414131 17.828262 7.62133555 14.36486178 7.4375 10.875 C7.39431641 10.12089844 7.35113281 9.36679688 7.30664062 8.58984375 C7.2005168 6.72678112 7.09974999 4.86341476 7 3 C4.69 2.67 2.38 2.34 0 2 C0 2.66 0 3.32 0 4 C-0.66 3.67 -1.32 3.34 -2 3 C-1.34 2.01 -0.68 1.02 0 0 Z " fill="#156942" transform="translate(327,201)"/>
<path d="M0 0 C3.3 0 6.6 0 10 0 C7.07735566 1.46132217 5.07536854 2.34099246 2 3 C1.98018066 3.74685059 1.96036133 4.49370117 1.93994141 5.26318359 C1.84491789 8.63415605 1.73514741 12.00448929 1.625 15.375 C1.5940625 16.550625 1.563125 17.72625 1.53125 18.9375 C1.49257813 20.05898437 1.45390625 21.18046875 1.4140625 22.3359375 C1.3826416 23.37282715 1.3512207 24.4097168 1.31884766 25.47802734 C1 28 1 28 -1 30 C-1.02896822 25.56251365 -1.04678788 21.12505153 -1.0625 16.6875 C-1.07087891 15.42486328 -1.07925781 14.16222656 -1.08789062 12.86132812 C-1.09111328 11.65283203 -1.09433594 10.44433594 -1.09765625 9.19921875 C-1.10289307 8.08377686 -1.10812988 6.96833496 -1.11352539 5.8190918 C-1 3 -1 3 0 0 Z " fill="#1B7342" transform="translate(270,220)"/>
<path d="M0 0 C0.33 0 0.66 0 1 0 C1 8.25 1 16.5 1 25 C2.98 24.67 4.96 24.34 7 24 C7 24.99 7 25.98 7 27 C4.66705225 27.04241723 2.33297433 27.04092937 0 27 C-1.71084501 25.28915499 -1.13014689 23.05639907 -1.1328125 20.72265625 C-1.13410156 19.65208984 -1.13539063 18.58152344 -1.13671875 17.47851562 C-1.13285156 16.35123047 -1.12898438 15.22394531 -1.125 14.0625 C-1.12886719 12.93908203 -1.13273437 11.81566406 -1.13671875 10.65820312 C-1.13542969 9.58634766 -1.13414062 8.51449219 -1.1328125 7.41015625 C-1.13168457 6.42152588 -1.13055664 5.43289551 -1.12939453 4.41430664 C-1 2 -1 2 0 0 Z " fill="#196E43" transform="translate(336,230)"/>
<path d="M0 0 C0.30357074 2.41654328 0.56844304 4.8273428 0.8125 7.25 C0.94688477 8.27287109 0.94688477 8.27287109 1.08398438 9.31640625 C1.26953125 11.328125 1.26953125 11.328125 1 15 C-1.48828125 17.484375 -1.48828125 17.484375 -4 19 C-4.33 18.34 -4.66 17.68 -5 17 C-7.52733235 16.34444881 -7.52733235 16.34444881 -10 16 C-10.02692484 13.70839681 -10.04636124 11.41670454 -10.0625 9.125 C-10.07410156 7.84882813 -10.08570313 6.57265625 -10.09765625 5.2578125 C-10 2 -10 2 -9 0 C-5.44307323 -0.85056945 -3.50729422 -1.16909807 0 0 Z M-9 3 C-9.28162436 5.86382721 -9.28162436 5.86382721 -9.1875 9.0625 C-9.18105469 10.14660156 -9.17460937 11.23070312 -9.16796875 12.34765625 C-9.29831107 14.92202315 -9.29831107 14.92202315 -8 16 C-5.54190002 16.2500773 -5.54190002 16.2500773 -3 16 C-0.70951969 14.14044315 -0.70951969 14.14044315 -0.76953125 11.21484375 C-0.78371094 10.13332031 -0.79789062 9.05179688 -0.8125 7.9375 C-0.81894531 6.85339844 -0.82539063 5.76929688 -0.83203125 4.65234375 C-0.70168893 2.07797685 -0.70168893 2.07797685 -2 1 C-5.961168 0.60909667 -5.961168 0.60909667 -9 3 Z " fill="#1A723E" transform="translate(307,228)"/>
<path d="M0 0 C0.66 0.33 1.32 0.66 2 1 C-3.27873231 6.76516839 -9.19472009 12.09888413 -16 16 C-16.99 15.67 -17.98 15.34 -19 15 C-17.6696875 14.1646875 -17.6696875 14.1646875 -16.3125 13.3125 C-14.12509571 11.85932932 -12.50959882 10.50959882 -10.625 8.625 C-7.3508062 5.3508062 -3.74694076 2.70560734 0 0 Z " fill="#E9FCFE" transform="translate(361,275)"/>
<path d="M0 0 C1.20462891 0.16048828 1.20462891 0.16048828 2.43359375 0.32421875 C3.64208984 0.47310547 3.64208984 0.47310547 4.875 0.625 C6.87109375 1.01171875 6.87109375 1.01171875 7.87109375 2.01171875 C7.95867378 4.01136857 7.97805951 6.01407985 7.96875 8.015625 C7.96552734 9.23056641 7.96230469 10.44550781 7.95898438 11.69726562 C7.95060547 12.97666016 7.94222656 14.25605469 7.93359375 15.57421875 C7.92908203 16.85748047 7.92457031 18.14074219 7.91992188 19.46289062 C7.9080892 22.64587897 7.89160443 25.82877637 7.87109375 29.01171875 C7.54109375 29.01171875 7.21109375 29.01171875 6.87109375 29.01171875 C6.54109375 20.76171875 6.21109375 12.51171875 5.87109375 4.01171875 C2.57109375 3.35171875 -0.72890625 2.69171875 -4.12890625 2.01171875 C-2.12890625 0.01171875 -2.12890625 0.01171875 0 0 Z " fill="#1D7443" transform="translate(254.12890625,218.98828125)"/>
<path d="M0 0 C0.66 0.33 1.32 0.66 2 1 C2 3.31 2 5.62 2 8 C-2.05431692 9.15837626 -4.21812119 8.83691257 -8 7 C-8 6.34 -8 5.68 -8 5 C-8.66 5 -9.32 5 -10 5 C-10 4.34 -10 3.68 -10 3 C-8.68 3 -7.36 3 -6 3 C-6 3.66 -6 4.32 -6 5 C-4.35 4.67 -2.7 4.34 -1 4 C-0.67 2.68 -0.34 1.36 0 0 Z " fill="#18713D" transform="translate(279,254)"/>
<path d="M0 0 C0.556875 0.226875 1.11375 0.45375 1.6875 0.6875 C1.3575 2.6675 1.0275 4.6475 0.6875 6.6875 C-1.6225 6.6875 -3.9325 6.6875 -6.3125 6.6875 C-6.6425 5.3675 -6.9725 4.0475 -7.3125 2.6875 C-2.88173077 -0.38942308 -2.88173077 -0.38942308 0 0 Z " fill="#EFF9FD" transform="translate(205.3125,220.3125)"/>
<path d="M0 0 C0.66 0.33 1.32 0.66 2 1 C-0.62198774 3.15377564 -2.64404172 4.40072174 -6 5 C-3.525 5.99 -3.525 5.99 -1 7 C-1 7.33 -1 7.66 -1 8 C-4.96 8 -8.92 8 -13 8 C-13 6.35 -13 4.7 -13 3 C-11.96939453 2.92652344 -11.96939453 2.92652344 -10.91796875 2.8515625 C-9.56638672 2.73941406 -9.56638672 2.73941406 -8.1875 2.625 C-7.29417969 2.55539063 -6.40085937 2.48578125 -5.48046875 2.4140625 C-2.75601501 2.13354964 -2.75601501 2.13354964 0 0 Z " fill="#116937" transform="translate(313,249)"/>
<path d="M0 0 C0.66 1.32 1.32 2.64 2 4 C2.66 4 3.32 4 4 4 C4.33 2.68 4.66 1.36 5 0 C5.34548714 6.33393082 4.29342747 11.10261508 2 17 C1.67 17 1.34 17 1 17 C1.3403125 15.14375 1.3403125 15.14375 1.6875 13.25 C2.19205215 9.81160922 2.19205215 9.81160922 0.5 6.8125 C0.005 6.214375 -0.49 5.61625 -1 5 C-0.6875 2.25 -0.6875 2.25 0 0 Z " fill="#14733C" transform="translate(314,232)"/>
<path d="M0 0 C1.134375 0.020625 2.26875 0.04125 3.4375 0.0625 C3.7675 0.7225 4.0975 1.3825 4.4375 2.0625 C2.1275 2.0625 -0.1825 2.0625 -2.5625 2.0625 C-2.5625 7.0125 -2.5625 11.9625 -2.5625 17.0625 C-3.2225 17.0625 -3.8825 17.0625 -4.5625 17.0625 C-4.58934679 14.41659986 -4.60926357 11.77096904 -4.625 9.125 C-4.63337891 8.37025391 -4.64175781 7.61550781 -4.65039062 6.83789062 C-4.65902441 4.91255687 -4.61474333 2.98714419 -4.5625 1.0625 C-3.5625 0.0625 -3.5625 0.0625 0 0 Z " fill="#1C7347" transform="translate(213.5625,198.9375)"/>
<path d="M0 0 C2.3828125 0.0234375 2.3828125 0.0234375 5.125 0.375 C6.03507812 0.48585938 6.94515625 0.59671875 7.8828125 0.7109375 C8.93082031 0.85402344 8.93082031 0.85402344 10 1 C10 1.33 10 1.66 10 2 C7.03 2 4.06 2 1 2 C1.11341534 4.40877257 1.11341534 4.40877257 2 7 C4.46115547 8.84434349 4.46115547 8.84434349 7 10 C5 11 5 11 1.875 10.0625 C0.92625 9.711875 -0.0225 9.36125 -1 9 C-1.625 5.625 -1.625 5.625 -2 2 C-1.34 1.34 -0.68 0.68 0 0 Z " fill="#11653C" transform="translate(290,269)"/>
<path d="M0 0 C0.33 0.99 0.66 1.98 1 3 C1.73605469 2.83242188 2.47210938 2.66484375 3.23046875 2.4921875 C4.69419922 2.18667969 4.69419922 2.18667969 6.1875 1.875 C7.15042969 1.66617187 8.11335938 1.45734375 9.10546875 1.2421875 C12.38967697 0.96739545 14.04976696 1.62322458 17 3 C18.9924325 3.37593066 20.9918674 3.71979545 23 4 C23 4.33 23 4.66 23 5 C15.74 5 8.48 5 1 5 C0.67 3.35 0.34 1.7 0 0 Z " fill="#176B3F" transform="translate(324,259)"/>
<path d="M0 0 C2.64 0.33 5.28 0.66 8 1 C8.625 3.3125 8.625 3.3125 9 6 C8.01 7.485 8.01 7.485 7 9 C7 7.02 7 5.04 7 3 C4.36 3 1.72 3 -1 3 C-1.33 4.65 -1.66 6.3 -2 8 C-2.33 7.01 -2.66 6.02 -3 5 C-1.5625 2.3125 -1.5625 2.3125 0 0 Z " fill="#166B41" transform="translate(382,222)"/>
<path d="M0 0 C0.66 0.33 1.32 0.66 2 1 C0.11380178 8.03645577 -1.86927695 15.03359344 -4 22 C-4.66 21.67 -5.32 21.34 -6 21 C-5.01518286 15.1374415 -3.82647683 10.28428277 -1 5 C-0.30092586 2.26427415 -0.30092586 2.26427415 0 0 Z " fill="#187340" transform="translate(379,258)"/>
<path d="M0 0 C0.33 0 0.66 0 1 0 C1.05790353 3.29159316 1.09356261 6.58305603 1.125 9.875 C1.14175781 10.81214844 1.15851563 11.74929687 1.17578125 12.71484375 C1.18222656 13.61074219 1.18867188 14.50664062 1.1953125 15.4296875 C1.20578613 16.25710449 1.21625977 17.08452148 1.22705078 17.93701172 C1 20 1 20 -1 22 C-4.625 21.625 -4.625 21.625 -8 21 C-8 20.67 -8 20.34 -8 20 C-5.69 19.34 -3.38 18.68 -1 18 C-0.505 9.09 -0.505 9.09 0 0 Z " fill="#176B46" transform="translate(218,239)"/>
<path d="M0 0 C2.32509781 2.13802098 3.82167236 4.18598137 5.25 7 C5.60578125 7.680625 5.9615625 8.36125 6.328125 9.0625 C7 11 7 11 6 14 C3.36 10.04 0.72 6.08 -2 2 C-1.34 1.34 -0.68 0.68 0 0 Z " fill="#DCF4FD" transform="translate(358,194)"/>
<path d="M0 0 C5.65394631 -0.34615998 9.03006806 0.56574762 14 3 C11.92446352 3.5534764 10.15634036 4 8 4 C7.67 4.33 7.34 4.66 7 5 C5.33382885 5.04063832 3.66611905 5.042721 2 5 C2.66 4.67 3.32 4.34 4 4 C3.67 3.34 3.34 2.68 3 2 C2.01 2 1.02 2 0 2 C0 1.34 0 0.68 0 0 Z " fill="#1A7443" transform="translate(338,221)"/>
<path d="M0 0 C1.08062462 3.24187386 0.96405231 3.89709861 0.00390625 7.01171875 C-0.33930664 8.14770508 -0.33930664 8.14770508 -0.68945312 9.30664062 C-0.93630859 10.09232422 -1.18316406 10.87800781 -1.4375 11.6875 C-1.68048828 12.48478516 -1.92347656 13.28207031 -2.17382812 14.10351562 C-2.77479738 16.07139534 -3.3863905 18.03602495 -4 20 C-4.33 20 -4.66 20 -5 20 C-5.73226358 12.38445882 -3.19164467 6.83923859 0 0 Z " fill="#17713F" transform="translate(388,231)"/>
<path d="M0 0 C0.33 0 0.66 0 1 0 C1.33 3.96 1.66 7.92 2 12 C3.98 11.67 5.96 11.34 8 11 C8 11.99 8 12.98 8 14 C5.66705225 14.04241723 3.33297433 14.04092937 1 14 C0 13 0 13 -0.09765625 10.05859375 C-0.08605469 8.86363281 -0.07445312 7.66867188 -0.0625 6.4375 C-0.05347656 5.23996094 -0.04445313 4.04242188 -0.03515625 2.80859375 C-0.02355469 1.88175781 -0.01195312 0.95492187 0 0 Z " fill="#13713B" transform="translate(335,243)"/>
<path d="M0 0 C0.66 0 1.32 0 2 0 C1.94004678 1.79260132 1.8512759 3.58425795 1.75 5.375 C1.70359375 6.37273437 1.6571875 7.37046875 1.609375 8.3984375 C1 11 1 11 -1.046875 12.3515625 C-1.69140625 12.56554687 -2.3359375 12.77953125 -3 13 C-2.68991116 11.39536551 -2.37683713 9.79130769 -2.0625 8.1875 C-1.88847656 7.29417969 -1.71445312 6.40085938 -1.53515625 5.48046875 C-1 3 -1 3 0 0 Z " fill="#12753E" transform="translate(378,232)"/>
<path d="M0 0 C0.66 0 1.32 0 2 0 C1.4375 2.3125 1.4375 2.3125 0 5 C-5.79310345 8 -5.79310345 8 -9 8 C-8.67 7.01 -8.34 6.02 -8 5 C-4.535 4.505 -4.535 4.505 -1 4 C-0.67 2.68 -0.34 1.36 0 0 Z " fill="#1A7042" transform="translate(315,272)"/>
<path d="M0 0 C0.66 0 1.32 0 2 0 C2.6708712 1.6232687 3.33657029 3.24867578 4 4.875 C4.556875 6.23238281 4.556875 6.23238281 5.125 7.6171875 C6 10 6 10 6 12 C5.01 12 4.02 12 3 12 C2.87625 10.865625 2.7525 9.73125 2.625 8.5625 C2.41875 7.386875 2.2125 6.21125 2 5 C1.34 4.67 0.68 4.34 0 4 C0 2.68 0 1.36 0 0 Z " fill="#197340" transform="translate(234,235)"/>
<path d="M0 0 C1.60875 0.7734375 1.60875 0.7734375 3.25 1.5625 C5.62354232 2.58384245 6.70684261 3.03169269 9.3125 2.75 C10.55579711 2.19742351 11.78307651 1.60846174 13 1 C12.67 2.32 12.34 3.64 12 5 C4.66666667 5.36666667 4.66666667 5.36666667 1.5 3.625 C0 2 0 2 0 0 Z " fill="#1C6C4A" transform="translate(232,256)"/>
<path d="M0 0 C0.99 0.33 1.98 0.66 3 1 C2.67 1.99 2.34 2.98 2 4 C3.32 4 4.64 4 6 4 C6 4.66 6 5.32 6 6 C3.69 6 1.38 6 -1 6 C-0.67 4.02 -0.34 2.04 0 0 Z " fill="#E3F6FE" transform="translate(180,220)"/>
<path d="M0 0 C0.99 0.33 1.98 0.66 3 1 C2.67 2.98 2.34 4.96 2 7 C0.68 7 -0.64 7 -2 7 C-1.67 6.21625 -1.34 5.4325 -1 4.625 C0.11866511 2.15667503 0.11866511 2.15667503 0 0 Z " fill="#D5EFF7" transform="translate(204,220)"/>
<path d="M0 0 C3.46177365 1.15392455 6.00667498 2.93793165 9 5 C7 6 7 6 3.9375 5.3125 C1 4 1 4 0.125 1.875 C0.08375 1.25625 0.0425 0.6375 0 0 Z " fill="#1D7040" transform="translate(288,274)"/>
<path d="M0 0 C0 0.99 0 1.98 0 3 C-1.65 3.33 -3.3 3.66 -5 4 C-5.33 5.32 -5.66 6.64 -6 8 C-6.33 7.01 -6.66 6.02 -7 5 C-2.25 0 -2.25 0 0 0 Z " fill="#186F44" transform="translate(294,221)"/>
<path d="M0 0 C0.33 0 0.66 0 1 0 C1 2.97 1 5.94 1 9 C-1.31 9 -3.62 9 -6 9 C-4.6875 7.5 -4.6875 7.5 -3 6 C-2.01 6 -1.02 6 0 6 C0 4.02 0 2.04 0 0 Z " fill="#DCF1FC" transform="translate(197,252)"/>
<path d="M0 0 C0.66 0.33 1.32 0.66 2 1 C-1.465 3.97 -1.465 3.97 -5 7 C-5.66 6.34 -6.32 5.68 -7 5 C-4.69 3.35 -2.38 1.7 0 0 Z " fill="#C7EBF5" transform="translate(361,275)"/>
</svg>
